<?xml version="1.0" encoding="utf-8"?>
<!-- Generator: Adobe Illustrator 24.1.3, SVG Export Plug-In . SVG Version: 6.00 Build 0)  -->
<svg version="1.1" id="Layer_1" xmlns="http://www.w3.org/2000/svg" xmlns:xlink="http://www.w3.org/1999/xlink" x="0px" y="0px"
	 viewBox="0 0 75 75" style="enable-background:new 0 0 75 75;" xml:space="preserve">
<style type="text/css">
	.st0{fill:#FFFFFF;}
</style>
<g>
	<path class="st0" d="M37.9,11.3l1.8-1.9L59.1,30l-1.8,1.9L37.9,11.3z M9.7,28.1L35.3,0.9l1.8,1.9L13.2,28.1l19.4,20.6l-1.8,1.9
		L9.7,28.1z M39.7,0l-2.2,2.3L35.3,0L8.8,28.1l22.1,23.4l2.2-2.3l2.2,2.3l4.4-4.7L22.1,28.1l15.4-16.4l19.8,21.1l2.2-2.3l2.2,2.3
		l4.4-4.7L39.7,0z"/>
	<path class="st0" d="M9.7,46.9l3.6-3.8L15,45l-1.8,1.9l23.8,25.3l-1.8,1.9L9.7,46.9z M37.9,63.7l15.4-16.4l0.4-0.4l-0.4-0.4
		l-21.6-23l3.6-3.8l1.8,1.9l-1.8,1.9l22.1,23.4L39.7,65.6L37.9,63.7z M37.5,21.1l-2.2-2.3l-4.4,4.7l22.1,23.4L37.5,63.3L17.6,42.2
		l-2.2,2.3l-2.2-2.3l-4.4,4.7L35.3,75l2.2-2.3l2.2,2.3l26.5-28.1L39.7,18.7L37.5,21.1z"/>
	<path class="st0" d="M0.8,37.5l3.6-3.8l1.8,1.9l-1.8,1.9l1.8,1.9l-1.8,1.9L0.8,37.5z M6.6,35.2l-2.2-2.3L0,37.5l4.4,4.7l2.2-2.3
		l2.2,2.3l4.4-4.7l-4.4-4.7L6.6,35.2z"/>
	<path class="st0" d="M62.6,37.5l3.6-3.8l1.8,1.9l-1.8,1.9l1.8,1.9l-1.8,1.9L62.6,37.5z M68.4,35.2l-2.2-2.3l-4.4,4.7l4.4,4.7
		l2.2-2.3l2.2,2.3l4.4-4.7l-4.4-4.7L68.4,35.2z"/>
</g>
</svg>
