<?xml version="1.0" encoding="utf-8"?>
<!-- Generator: Adobe Illustrator 24.1.3, SVG Export Plug-In . SVG Version: 6.00 Build 0)  -->
<svg version="1.1" id="Layer_1" xmlns="http://www.w3.org/2000/svg" xmlns:xlink="http://www.w3.org/1999/xlink" x="0px" y="0px"
	 viewBox="0 0 610 148" style="enable-background:new 0 0 610 148;" xml:space="preserve">
<style type="text/css">
	.st0{fill:#FFFFFF;}
</style>
<g>
	<path class="st0" d="M21,107.6c13.6,0,21-9.5,21-26.5c0-13-3.7-21.3-15.3-33.4c-9.1-9.4-12-14.9-12-22.5c0-7.2,2.5-10,6.9-10
		c4.4,0,6.9,2.8,6.9,10.3v5.4h13.1v-4.3C41.7,9.9,35,0.4,21.5,0.4S0.8,9.9,0.8,26.3c0,11.9,3.8,20.4,15.4,32.5
		C25.3,68.2,28,73.7,28,82.3c0,7.7-2.8,10.4-7.2,10.4c-4.4,0-7.2-2.7-7.2-10.1v-7.2H0.5v6C0.5,98.1,7.3,107.6,21,107.6 M45.9,106.2
		h12.9l2.5-20.4h15.8v-0.3l2.5,20.7h13.9L79.1,1.8H60.3L45.9,106.2z M62.9,71.6L69,20h0.3l6.2,51.6H62.9z M100.2,106.2h12.4V30h0.3
		l16.7,76.1h14.3V1.8h-12.4v62.4h-0.3L117.6,1.8h-17.4V106.2z M154.1,106.2h21.2c13.9,0,20.7-9.1,20.7-25.8V27.6
		c0-16.7-6.8-25.8-20.7-25.8h-21.2V106.2z M168,91.3V16.7h7.1c4.4,0,7.1,2.7,7.1,10.1v54.2c0,7.4-2.7,10.1-7.1,10.1H168z
		 M205.4,106.2h13.9V61.5h4.8c6.3,0,8.7,3.1,8.7,12.8v19.1c0,8.5,0.5,10.1,1.3,12.8h14.1c-1.4-3.9-1.5-7.6-1.5-12.7V75.2
		c0-11.8-2.3-19.5-9.2-22.1v-0.3c6.2-3,9.1-9.8,9.1-20.6v-6.4c0-16.1-6.2-24-20.6-24h-20.6V106.2z M219.3,46.6V16.7h6.3
		c4.9,0,7.1,3.3,7.1,10.7v8c0,8.3-3.2,11-8.3,11H219.3z M276.4,107.6c13.6,0,21.1-9.5,21.1-26.2V26.6c0-16.7-7.5-26.2-21.1-26.2
		c-13.6,0-21.1,9.5-21.1,26.2v54.8C255.3,98.1,262.7,107.6,276.4,107.6 M276.4,92.7c-4.4,0-7.2-2.8-7.2-10.3V25.5
		c0-7.5,2.8-10.3,7.2-10.3c4.4,0,7.2,2.8,7.2,10.3v56.9C283.6,89.9,280.8,92.7,276.4,92.7 M346.7,107.6c13.6,0,20.7-9.5,20.7-26.2
		V47.3h-20.1v14.9h6.9v20.4c0,7.4-2.8,10.1-7.2,10.1c-4.4,0-7.2-2.7-7.2-10.1V25.5c0-7.5,2.8-10.3,7.2-10.3c4.4,0,7.2,2.8,7.2,10.3
		v10h13.1v-8.9c0-16.7-7.1-26.2-20.7-26.2c-13.6,0-20.7,9.5-20.7,26.2v54.8C326,98.1,333.1,107.6,346.7,107.6 M396.6,107.6
		c13.6,0,20.7-9.5,20.7-26.2V1.8H404v80.8c0,7.4-2.7,10.1-7.1,10.1s-7.1-2.7-7.1-10.1V1.8h-13.9v79.6
		C375.9,98.1,383,107.6,396.6,107.6 M427.2,106.2h37.9V91.3h-24v-32h19.1V44.3h-19.1V16.7h24V1.8h-37.9V106.2z M473.1,106.2h21.2
		c13.9,0,20.7-9.1,20.7-25.8V27.6c0-16.7-6.8-25.8-20.7-25.8h-21.2V106.2z M487,91.3V16.7h7.1c4.4,0,7.1,2.7,7.1,10.1v54.2
		c0,7.4-2.7,10.1-7.1,10.1H487z M524.4,106.2h37.9V91.3h-24v-32h19.1V44.3h-19.1V16.7h24V1.8h-37.9V106.2z M588.5,107.6
		c13.6,0,21-9.5,21-26.5c0-13-3.7-21.3-15.3-33.4c-9.1-9.4-12-14.9-12-22.5c0-7.2,2.5-10,6.9-10c4.4,0,6.9,2.8,6.9,10.3v5.4h13.1
		v-4.3c0-16.7-6.7-26.2-20.2-26.2c-13.5,0-20.7,9.5-20.7,25.9c0,11.9,3.8,20.4,15.4,32.5c9.1,9.4,11.9,14.9,11.9,23.5
		c0,7.7-2.8,10.4-7.2,10.4c-4.4,0-7.2-2.7-7.2-10.1v-7.2h-13.1v6C568.1,98.1,574.9,107.6,588.5,107.6"/>
	<path class="st0" d="M337.8,143.2c1.1,0,2.2-0.2,3.1-0.6c0.9-0.4,1.7-1,2.3-1.7c0.6-0.7,1.1-1.6,1.5-2.6c0.3-1,0.5-2.2,0.5-3.4
		c0-2.6-0.6-4.6-1.8-5.9c-1.2-1.3-3-2-5.4-2h-3.7v16.3H337.8z M337.9,128.2c4,0,6,2.2,6,6.6c0,1.1-0.1,2.1-0.4,3
		c-0.3,0.9-0.7,1.6-1.2,2.2c-0.5,0.6-1.2,1-1.9,1.3c-0.8,0.3-1.6,0.5-2.6,0.5h-2.1v-13.5H337.9z M355.8,143.2v-1.4H350v-6.2h5.1
		v-1.4H350v-6h5.5v-1.4h-6.8v16.3H355.8z M358.9,142.6c0.2,0.1,0.4,0.2,0.7,0.4c0.3,0.1,0.6,0.2,0.9,0.3c0.3,0.1,0.6,0.1,0.9,0.2
		c0.3,0,0.6,0.1,0.8,0.1c0.7,0,1.3-0.1,1.9-0.3c0.6-0.2,1.1-0.5,1.5-0.8c0.4-0.4,0.7-0.8,1-1.4c0.2-0.5,0.3-1.2,0.3-1.9
		c0-0.5-0.1-1-0.2-1.4c-0.1-0.4-0.4-0.8-0.6-1.2c-0.3-0.4-0.7-0.7-1.1-1.1c-0.4-0.3-0.9-0.7-1.5-1.1c-0.6-0.3-1-0.7-1.4-0.9
		c-0.4-0.3-0.7-0.5-0.9-0.8c-0.2-0.3-0.4-0.6-0.5-0.9c-0.1-0.3-0.2-0.7-0.2-1.1c0-0.5,0.1-0.8,0.2-1.2c0.2-0.3,0.4-0.6,0.7-0.8
		c0.3-0.2,0.6-0.4,1-0.5c0.4-0.1,0.8-0.2,1.2-0.2c1.1,0,2.1,0.3,2.9,0.8v-1.7c-0.7-0.4-1.7-0.5-2.8-0.5c-0.6,0-1.2,0.1-1.8,0.3
		c-0.6,0.2-1,0.5-1.4,0.8c-0.4,0.4-0.7,0.8-1,1.3c-0.2,0.5-0.4,1.1-0.4,1.8c0,0.5,0.1,1,0.2,1.4c0.1,0.4,0.3,0.8,0.6,1.1
		c0.3,0.4,0.6,0.7,1,1c0.4,0.3,0.9,0.7,1.5,1.1c0.5,0.4,1,0.7,1.4,0.9c0.4,0.3,0.7,0.6,1,0.8c0.3,0.3,0.5,0.6,0.6,0.9
		c0.1,0.3,0.2,0.7,0.2,1.1c0,0.9-0.3,1.6-0.8,2.1c-0.5,0.5-1.3,0.7-2.4,0.7c-0.3,0-0.6,0-0.9-0.1c-0.3-0.1-0.6-0.1-0.9-0.3
		c-0.3-0.1-0.6-0.2-0.9-0.4c-0.3-0.2-0.5-0.3-0.8-0.5V142.6z M371.6,126.9h-1.3v16.3h1.3V126.9z M386.2,134.9h-4.5v1.4h3.2v5
		c-0.9,0.6-1.9,0.9-3.1,0.9c-0.9,0-1.6-0.2-2.3-0.5c-0.7-0.3-1.2-0.8-1.7-1.5c-0.5-0.6-0.8-1.4-1-2.2c-0.2-0.9-0.3-1.8-0.3-2.8
		c0-1,0.1-2,0.4-2.8c0.3-0.9,0.6-1.6,1.1-2.3c0.5-0.6,1.1-1.1,1.8-1.5c0.7-0.4,1.5-0.5,2.3-0.5c1.4,0,2.7,0.4,3.8,1.2v-1.7
		c-1.1-0.6-2.3-0.9-3.7-0.9c-0.7,0-1.4,0.1-2.1,0.3c-0.6,0.2-1.2,0.5-1.7,0.9c-0.5,0.4-1,0.8-1.4,1.4c-0.4,0.5-0.8,1.1-1,1.8
		c-0.3,0.6-0.5,1.3-0.6,2.1c-0.1,0.7-0.2,1.5-0.2,2.3c0,1.2,0.2,2.3,0.5,3.3c0.3,1,0.7,1.9,1.3,2.6c0.6,0.7,1.3,1.3,2.1,1.7
		c0.8,0.4,1.7,0.6,2.7,0.6c1.6,0,3.1-0.5,4.6-1.4V134.9z M401,143.2v-16.3h-1.3V139c0,0.4,0,0.7,0,1c0,0.3,0,0.6,0.1,0.8h0
		c-0.1-0.2-0.2-0.3-0.3-0.5c-0.1-0.2-0.2-0.4-0.3-0.6l-7.6-12.9h-1.4v16.3h1.3v-12.6c0-0.4,0-0.7,0-0.9c0-0.2,0-0.4,0-0.6h0
		c0.1,0.2,0.1,0.3,0.2,0.5c0.1,0.2,0.2,0.3,0.3,0.5l7.7,13.1H401z M411.5,125.4h-1.2v23.3h1.2V125.4z M424.2,143.2
		c1.1,0,2.2-0.2,3.1-0.6c0.9-0.4,1.7-1,2.3-1.7c0.6-0.7,1.1-1.6,1.5-2.6c0.3-1,0.5-2.2,0.5-3.4c0-2.6-0.6-4.6-1.8-5.9
		c-1.2-1.3-3-2-5.4-2h-3.7v16.3H424.2z M424.3,128.2c4,0,6,2.2,6,6.6c0,1.1-0.1,2.1-0.4,3c-0.3,0.9-0.7,1.6-1.2,2.2
		c-0.5,0.6-1.2,1-1.9,1.3c-0.8,0.3-1.6,0.5-2.6,0.5H422v-13.5H424.3z M442.2,143.2v-1.4h-5.8v-6.2h5.1v-1.4h-5.1v-6h5.5v-1.4h-6.8
		v16.3H442.2z M455.9,126.9h-1.4l-4.1,13c-0.1,0.3-0.2,0.6-0.2,0.8c-0.1,0.3-0.1,0.5-0.1,0.7h0c0-0.3-0.1-0.5-0.1-0.8
		c-0.1-0.2-0.1-0.5-0.2-0.7l-3.9-13h-1.5l5.1,16.3h1.3L455.9,126.9z M465.8,143.2v-1.4H460v-6.2h5.1v-1.4H460v-6h5.5v-1.4h-6.8v16.3
		H465.8z M476.4,143.2v-1.4h-5.6v-14.9h-1.3v16.3H476.4z M487.2,142.8c0.8-0.4,1.5-1,2.1-1.8c0.6-0.8,1-1.7,1.3-2.7
		c0.3-1.1,0.4-2.2,0.4-3.4c0-1.2-0.1-2.3-0.4-3.3c-0.3-1-0.7-1.9-1.3-2.6c-0.5-0.7-1.2-1.3-2-1.7c-0.8-0.4-1.7-0.6-2.7-0.6
		c-1.1,0-2,0.2-2.9,0.6c-0.8,0.4-1.5,1-2.1,1.8c-0.6,0.8-1,1.7-1.3,2.7s-0.5,2.2-0.5,3.5c0,1.2,0.2,2.2,0.5,3.2
		c0.3,1,0.7,1.9,1.3,2.6c0.6,0.7,1.2,1.3,2,1.8c0.8,0.4,1.7,0.6,2.7,0.6C485.5,143.5,486.4,143.2,487.2,142.8 M486.8,128.5
		c0.6,0.4,1.2,0.9,1.6,1.5c0.4,0.6,0.7,1.4,0.9,2.2c0.2,0.9,0.3,1.8,0.3,2.7c0,1-0.1,2-0.3,2.8c-0.2,0.9-0.6,1.6-1,2.2
		c-0.4,0.6-1,1.1-1.6,1.5c-0.7,0.4-1.4,0.5-2.3,0.5c-0.9,0-1.6-0.2-2.3-0.6c-0.6-0.4-1.2-0.9-1.6-1.6c-0.4-0.6-0.7-1.4-1-2.2
		c-0.2-0.8-0.3-1.7-0.3-2.7c0-1,0.1-1.9,0.4-2.7c0.2-0.9,0.6-1.6,1-2.3c0.4-0.6,1-1.1,1.7-1.5c0.7-0.4,1.4-0.6,2.2-0.6
		C485.4,128,486.2,128.1,486.8,128.5 M497.7,136.8c0.8,0,1.5-0.1,2.1-0.4c0.6-0.3,1.1-0.6,1.6-1.1c0.4-0.5,0.8-1,1-1.7
		c0.2-0.6,0.3-1.3,0.3-2.1s-0.1-1.4-0.3-2c-0.2-0.6-0.5-1.1-0.9-1.5c-0.4-0.4-0.9-0.7-1.4-0.9c-0.6-0.2-1.2-0.3-1.9-0.3h-3.6v16.3
		h1.3v-6.3H497.7z M497.9,128.2c2.3,0,3.4,1.1,3.4,3.4c0,1.2-0.3,2.1-0.9,2.8c-0.6,0.7-1.5,1-2.7,1h-1.9v-7.2H497.9z M519.8,143.2
		v-16.3h-1.4l-4.8,12.3c-0.1,0.3-0.2,0.6-0.3,0.8c-0.1,0.3-0.2,0.5-0.2,0.8H513c-0.1-0.3-0.2-0.6-0.3-0.9c-0.1-0.3-0.2-0.5-0.3-0.8
		l-4.7-12.3h-1.5v16.3h1.3v-11.4c0-0.5,0-1,0-1.5c0-0.4,0-0.8-0.1-1.2h0c0.2,0.7,0.3,1.2,0.4,1.6l4.9,12.5h0.6l4.9-12.5
		c0.1-0.2,0.1-0.4,0.2-0.6c0.1-0.3,0.2-0.5,0.2-0.9h0c-0.1,1.3-0.1,2.2-0.1,2.8v11.3H519.8z M531.2,143.2v-1.4h-5.8v-6.2h5.1v-1.4
		h-5.1v-6h5.5v-1.4h-6.8v16.3H531.2z M545.7,143.2v-16.3h-1.3V139c0,0.4,0,0.7,0,1c0,0.3,0,0.6,0.1,0.8h0c-0.1-0.2-0.2-0.3-0.3-0.5
		c-0.1-0.2-0.2-0.4-0.3-0.6l-7.6-12.9h-1.4v16.3h1.3v-12.6c0-0.4,0-0.7,0-0.9c0-0.2,0-0.4,0-0.6h0c0.1,0.2,0.1,0.3,0.2,0.5
		c0.1,0.2,0.2,0.3,0.3,0.5l7.7,13.1H545.7z M558.1,128.2v-1.4h-9.3v1.4h4v14.9h1.3v-14.9H558.1z M567.2,125.4H566v23.3h1.2V125.4z
		 M586.9,143.2l-5.3-16.3h-1.3l-5.3,16.3h1.4l1.5-4.8h6l1.5,4.8H586.9z M583.5,137h-5.1l2.3-7.3c0-0.1,0.1-0.3,0.1-0.5
		c0-0.2,0.1-0.4,0.1-0.6h0c0,0.2,0.1,0.5,0.1,0.6c0,0.2,0.1,0.4,0.1,0.5L583.5,137z M598.9,143.2l-2.3-5.1c-0.2-0.3-0.3-0.6-0.4-0.9
		c-0.1-0.3-0.3-0.5-0.4-0.7c-0.1-0.2-0.3-0.4-0.5-0.5c-0.2-0.1-0.3-0.3-0.5-0.4v0c0.5-0.1,0.9-0.3,1.3-0.6c0.4-0.3,0.7-0.6,1-1
		c0.3-0.4,0.5-0.8,0.6-1.3c0.2-0.5,0.2-1,0.2-1.6c0-0.7-0.1-1.3-0.3-1.9c-0.2-0.5-0.5-1-0.9-1.3c-0.4-0.4-0.8-0.6-1.3-0.8
		c-0.5-0.2-1-0.3-1.5-0.3h-4v16.3h1.3v-7.1h1.5c0.3,0,0.6,0,0.8,0.1c0.2,0.1,0.5,0.2,0.7,0.4c0.2,0.2,0.4,0.4,0.6,0.7
		c0.2,0.3,0.4,0.7,0.6,1.2l2.1,4.7H598.9z M593.5,128.2c1,0,1.7,0.3,2.3,0.8c0.5,0.5,0.8,1.3,0.8,2.2c0,0.5-0.1,1-0.2,1.4
		c-0.2,0.4-0.4,0.8-0.6,1.1c-0.3,0.3-0.6,0.5-1,0.7c-0.4,0.2-0.8,0.2-1.3,0.2h-2.3v-6.5H593.5z M609.5,128.2v-1.4h-9.3v1.4h4v14.9
		h1.3v-14.9H609.5z"/>
	<path class="st0" d="M334.8,128.4H2.7c-0.4,0-0.7-0.4-0.7-0.8c0-0.4,0.3-0.8,0.7-0.8h332c0.4,0,0.7,0.4,0.7,0.8
		C335.4,128.1,335.1,128.4,334.8,128.4"/>
</g>
</svg>
