<?xml version="1.0" encoding="utf-8"?>
<!-- Generator: Adobe Illustrator 25.0.0, SVG Export Plug-In . SVG Version: 6.00 Build 0)  -->
<svg version="1.1" id="Layer_1" xmlns="http://www.w3.org/2000/svg" xmlns:xlink="http://www.w3.org/1999/xlink" x="0px" y="0px"
	 viewBox="0 0 1000 1000" style="enable-background:new 0 0 1000 1000;" xml:space="preserve">
<style type="text/css">
	.st0{fill:#FFFFFF;}
</style>
<path class="st0" d="M873.4,17.2H126.6c-60.4,0-109.4,49-109.4,109.4v746.9c0,60.4,49,109.4,109.4,109.4h746.9
	c60.4,0,109.4-49,109.4-109.4V126.6C982.8,66.2,933.8,17.2,873.4,17.2z M302.8,858.4c0,13.9-11.2,25.1-25.1,25.1h-112
	c-13.9,0-25.1-11.2-25.1-25.1V392.3c0-13.9,11.2-25.1,25.1-25.1h112c13.9,0,25.1,11.2,25.1,25.1V858.4z M223,324.5
	c-57.5,0-104-46.6-104-104c0-57.5,46.6-104,104-104s104,46.6,104,104C327.1,277.9,280.5,324.5,223,324.5z M881,858.4
	c0,13.9-11.2,25.1-25.1,25.1H739.3c-13.9,0-25.1-11.2-25.1-25.1v-227v-0.7v-35.4c0-43.9-19.3-95.7-88.3-95.7
	c-69,0-89.2,75.5-89.2,130.7v228.1c0,13.9-11.2,25.1-25.1,25.1h-112c-13.9,0-25.1-11.2-25.1-25.1V392.3c0-13.9,11.2-25.1,25.1-25.1
	h112c13.9,0,25.1,11.2,25.1,25.1v52.4c0,0,21.5-82.9,147-82.9S881,426.9,881,595.4V858.4z"/>
</svg>
