<?xml version="1.0" encoding="utf-8"?>
<!-- Generator: Adobe Illustrator 25.0.0, SVG Export Plug-In . SVG Version: 6.00 Build 0)  -->
<svg version="1.1" id="Layer_1" xmlns="http://www.w3.org/2000/svg" xmlns:xlink="http://www.w3.org/1999/xlink" x="0px" y="0px"
	 viewBox="0 0 1000 1000" style="enable-background:new 0 0 1000 1000;" xml:space="preserve">
<style type="text/css">
	.st0{fill:#FFFFFF;}
</style>
<path class="st0" d="M873.4,17.2H126.6c-60.4,0-109.4,49-109.4,109.4v746.9c0,60.4,49,109.4,109.4,109.4h405.3
	c0-71.2,0-237.4,0-373.7H405.4v-151h126.4c0-62.6,0-111.2,0-130.5c0-124,66.8-166.4,159.8-166.4c112.2,0,139.2,0,139.2,0V299
	c0,0-55.1,0-91.1,0s-56.1,20.2-56.1,58.8c0,8.9,0,47,0,100.3h144.1l-22,151H683.5c0,133.1,0,301.7,0,373.7h189.9
	c60.4,0,109.4-49,109.4-109.4V126.6C982.8,66.2,933.8,17.2,873.4,17.2z"/>
</svg>
