<?xml version="1.0" encoding="utf-8"?>
<!-- Generator: Adobe Illustrator 25.0.0, SVG Export Plug-In . SVG Version: 6.00 Build 0)  -->
<svg version="1.1" id="Layer_1" xmlns="http://www.w3.org/2000/svg" xmlns:xlink="http://www.w3.org/1999/xlink" x="0px" y="0px"
	 viewBox="0 0 1000 1000" style="enable-background:new 0 0 1000 1000;" xml:space="preserve">
<style type="text/css">
	.st0{fill:#FFFFFF;}
</style>
<g>
	<path class="st0" d="M665.8,183.6H334.2c-80.8,0-146.6,65.8-146.6,146.6v339.5c0,80.8,65.8,146.6,146.6,146.6h331.6
		c80.8,0,146.6-65.8,146.6-146.6V330.3C812.4,249.4,746.7,183.6,665.8,183.6z M501.3,690.2c-104.9,0-190.2-85.3-190.2-190.2
		c0-104.9,85.3-190.3,190.2-190.3c104.9,0,190.3,85.3,190.3,190.3C691.6,604.9,606.2,690.2,501.3,690.2z M702.7,340.1
		c-24.8,0-44.9-20.1-44.9-44.9c0-24.8,20.1-44.9,44.9-44.9s44.9,20.1,44.9,44.9C747.6,320,727.5,340.1,702.7,340.1z"/>
	<path class="st0" d="M501.3,370.4c-71.4,0-129.6,58.1-129.6,129.6c0,71.4,58.1,129.6,129.6,129.6c71.4,0,129.6-58.1,129.6-129.6
		C630.9,428.6,572.8,370.4,501.3,370.4z"/>
	<path class="st0" d="M873.4,17.2H126.6c-60.4,0-109.4,49-109.4,109.4v746.9c0,60.4,49,109.4,109.4,109.4h746.9
		c60.4,0,109.4-49,109.4-109.4V126.6C982.8,66.2,933.8,17.2,873.4,17.2z M873.1,669.7c0,114.3-93,207.3-207.3,207.3H334.2
		c-114.3,0-207.3-93-207.3-207.3V330.3c0-114.3,93-207.3,207.3-207.3h331.6c114.3,0,207.3,93,207.3,207.3V669.7z"/>
</g>
</svg>
